<svg xmlns="http://www.w3.org/2000/svg" data-name="Layer 1" viewBox="0 0 128 160" x="0px" y="0px"><title>Miscellaneous 72 expandlines</title><path d="M122.00641,71.00336c-.4566.05377-.90717.14728-1.36279.20813-1.94409.25977-5.98907.80078-14.12439,4.85065-10.00519,4.97955-20.75543,9.919-32.48706,10.84973a22.64306,22.64306,0,0,1-17.7558-6.29694c-.75574-1.42975-.79382-2.24615-.58582-2.51569.788-1.0166,5.54083-1.60449,15.37762.93945,13.32709,3.6651,20.11053-2.92969,20.96393-3.835,2.51874-2.34283,5.62537-5.76862,3.95416-8.68372-1.47888-2.57959-5.59607-2.41309-8.957-1.39551-3.39166,1.02539-7.07587.28125-10.23273-.5835-3.39313-.92871-6.79266-2.20758-10.08038-3.4444a85.90058,85.90058,0,0,0-14.74054-4.54834c-8.57568-1.563-17.2041.17725-25.64941,5.17285A50.554,50.554,0,0,0,9.27,78.069C.56934,91.8728-.48914,102.34747.15485,108.705A3.73425,3.73425,0,0,0,3.82532,112a3.77312,3.77312,0,0,0,3.18176-1.74518,7.14872,7.14872,0,0,0,1.28064-3.01367c.04584-.21973.101-.48145.17865-.81152a14.91825,14.91825,0,0,1,6.43384-9.19543l.27295-.14844c4.38232-2.44141,8.5083-.71875,17.42133,3.40729,3.77887,1.75,8.482,3.92773,14.223,6.086,26.206,8.91022,44.327-1.96,55.6778-10.91028,9.4071-7.418,20.2677-14.80774,20.30481-14.83508,1.74835-1.08209,6.39136-3.95612,4.914-7.33313C126.782,71.37012,124.11444,70.75525,122.00641,71.00336Z"/><path d="M89.53906,16A31.95153,31.95153,0,0,0,68,24.29492a32.11931,32.11931,0,0,0-44.50342,1.36523,33.36733,33.36733,0,0,0-6.27277,37.5799,57.09292,57.09292,0,0,1,7.07111-4.96222c9.16846-5.42285,18.99072-7.38135,28.40625-5.665a89.00111,89.00111,0,0,1,15.43262,4.73926c3.3501,1.26025,6.51465,2.45068,9.72949,3.33057,2.45508.67188,5.58545,1.34814,8.02.6123,6.16455-1.86475,11.37256-.626,13.58594,3.23486,2.02686,3.53564,1.01758,7.52979-2.998,11.895,2.814-1.25488,5.57422-2.59863,8.27979-3.94434A58.683,58.683,0,0,1,115.97955,68.045a33.36533,33.36533,0,0,0-3.47614-42.38483A32.00928,32.00928,0,0,0,89.53906,16Zm14.62256,29.99249c-.05957.00537-.11865.00781-.17773.00781a1.99954,1.99954,0,0,1-1.9895-1.82477c-.86469-9.817-9.0791-10.16754-10.01306-10.17535a2.00006,2.00006,0,0,1,.00293-4.00006h.0166c4.42334,0,13.01416,2.88629,13.97742,13.82483A1.99938,1.99938,0,0,1,104.16162,45.99249Z"/><text x="0" y="143" fill="#000000" font-size="5px" font-weight="bold" font-family="'Helvetica Neue', Helvetica, Arial-Unicode, Arial, Sans-serif">Created by priyanka</text><text x="0" y="148" fill="#000000" font-size="5px" font-weight="bold" font-family="'Helvetica Neue', Helvetica, Arial-Unicode, Arial, Sans-serif">from the Noun Project</text></svg>